<svg id="e2wO9qpTbX61" xmlns="http://www.w3.org/2000/svg" xmlns:xlink="http://www.w3.org/1999/xlink" viewBox="0 0 820 300" shape-rendering="geometricPrecision" text-rendering="geometricPrecision"><path d="M121.09,48.79q-2.37011,7.517359-2.935055,13.675534t-3.114945,48.474466l-1.473658,49.33v46.961928Q111.96,243.48,125.54,246.79" fill="none" stroke="#fff" stroke-width="8.5" stroke-linecap="round" stroke-linejoin="round"/><path d="M206.44,40.78q-16.99,17.36-16.99,103.54c0,86.18,10.14,79.755842,15.66,82.677921" fill="none" stroke="#fff" stroke-width="8.5" stroke-linecap="round" stroke-linejoin="round"/><path d="M45.92,172.97l175.6-15.61q2.12.91,1.06,3.34c-1.06,2.43,7-1.21,10.43-5.21s6.07-8.89-1.17-11.59-15.68,9.4-9.26,19.49q6.42,10.09,18.960642,8.55q5.831938-.42,10.591938-4.09c4.76-3.67,14.28742-17.84,17.71742-20.06q3.43-2.22-.2,7.24-2.139072,12.81,4.480928,15.7c2.516072,1.098406,7.269524-.955658,9.772375-2.88c4.082363-3.138766,7.198946-9.906712,7.626697-10.88.69-1.57,5.318144-10.912224,3.548144-21.799999-.291655-1.794055-1.322872-6.501656-.428144-6.632357c2.725226-.398098,11.858299,7.368956,25.59,22.402356q19.9,22.92,28.33,44.81t7.233979,34.75Q353.99,247.39,348.57,256.58t-13.59,14.039151q-11.521692,6.5425-20.109778,7.115039t-17.208467-2.923233q-5.085275-1.801265-9.041755-5.946149t-5.226399-8.074808q-1.874016-3.83-2.345026-11.61c-.47101-7.78,1.946666-13.982711,5.866666-21.962711q3.92-7.98,16.372763-18.944792Q328.776891,188.44,339.406891,182.73c10.63-5.71,42.645854-25.09,50.103109-21.37" fill="none" stroke="#fff" stroke-width="8.5" stroke-linecap="round" stroke-linejoin="round"/><path d="M434.77,71.93q-1.306786,9.03-.843393,18.28t.463393,10.58q2.28,28.25,3.29,38.13t5.107109,32.79q1.080428,4.79,3.214386,9.12t3.22575,5.26" transform="translate(.352891 0)" fill="none" stroke="#fff" stroke-width="8.5" stroke-linecap="round" stroke-linejoin="round"/><path d="M413.32753,105.48q46.609507-2.849228,64.97247-5.604614" fill="none" stroke="#fff" stroke-width="8.5" stroke-linecap="round" stroke-linejoin="round"/><path d="M481.67,54.978853c-4.835676,6.665077-8.903684,17.396537-11.721213,32.194381q-4.201896,22.068627-3.853784,47.264883q3.688834,51.875905,10.674996,60.825373t14.837436-14.903491q8.684548-21.38,19.782564-20.21c11.098016,1.17,6.326705,9.678154,20.291808,15.8q13.965103,6.121846,44.076893-7.66q14.090983-7.1,14.491134-8.02c.400151-.92,2.650165,3.36,1.870165,3.36s14.331228-9.201594,14.02-14.83q-.311228-5.628406-5.62-4.85-6.776326,1.344213-9.18,6.01t.89,11.71q4.564496,10.01,17.25,10.27t26.273773-10.58" transform="translate(.000001 0.000001)" fill="none" stroke="#fff" stroke-width="8.5" stroke-linecap="round" stroke-linejoin="round"/><path d="M635.753772,139.45q-.579391,5.07,0,11.49t3.106228,13.56q5.246883,14.31,6.784063,8.83c1.53718-5.48,4.615823-12.73,6.233721-15.09s5.291012-6.418876,8.246563-7.764438q2.955551-1.345562,9.025652,0Q673.932841,152.04,680.789269,151.49c6.856428-.55,15.180329-5.24,15.93073-8.64" transform="translate(.000001 0)" fill="none" stroke="#fff" stroke-width="8.5" stroke-linecap="round" stroke-linejoin="round"/><path d="M698.548537,163.611478q2.608523-.719999,5.869259-3.11t6.986902-6.531478q2.085301-3.010318,2.085301-5.17c0-2.159682-1.27-3.870291-3.43-4.48q-2.16-.609709-6.7,1.25-5.24204,3.01-5.447241,8.61c-.205201,5.6,4.872186,13.03,8.797241,15.28s16.34,6.38,38.15-9.19" transform="translate(.000001 0)" fill="none" stroke="#fff" stroke-width="8.5" stroke-linecap="round"/><path d="M752.17,38.401883c2.836034,68.178745,4.485125,109.244784,7.23,121.478117" fill="none" stroke="#fff" stroke-width="8.5" stroke-linecap="round" stroke-linejoin="round"/><path d="M761.61,184.17l-.219222-.16" fill="none" stroke="#fff" stroke-width="10" stroke-linecap="round" stroke-linejoin="round"/></svg>
